<?xml version="1.0" encoding="UTF-8"?>
<svg width="22px" height="24px" viewBox="0 0 22 24" version="1.1" xmlns="http://www.w3.org/2000/svg" xmlns:xlink="http://www.w3.org/1999/xlink">
    <!-- Generator: Sketch 48.1 (47250) - http://www.bohemiancoding.com/sketch -->
    <title>Notivication new 2@3x</title>
    <desc>Created with Sketch.</desc>
    <defs>
        <polygon id="path-1" points="0 0 21.0943787 0 21.0943787 24 0 24"></polygon>
    </defs>
    <g id="Gifthub-1.0" stroke="none" stroke-width="1" fill="none" fill-rule="evenodd">
        <g id="Notivication-new-2">
            <g id="Group-3">
                <mask id="mask-2" fill="white">
                    <use xlink:href="#path-1"></use>
                </mask>
                <g id="Clip-2"></g>
                <path d="M10.5526,23.127 C9.4476,23.127 8.4156,22.578 7.7526,21.681 C8.7276,21.781 9.6376,21.832 10.5476,21.832 C11.4616,21.832 12.3746,21.781 13.3536,21.68 C12.6906,22.578 11.6576,23.127 10.5526,23.127 Z M9.1636,2.182 C9.1636,1.46 9.7506,0.873 10.4726,0.873 C11.1946,0.873 11.7816,1.46 11.7816,2.182 L11.7816,2.262 C10.9116,2.137 10.0296,2.142 9.1636,2.281 L9.1636,2.182 Z M20.9666,19.764 C18.9326,17.742 17.9016,15.351 17.9016,12.654 L17.9016,8.73 C17.9026,8.666 17.8886,8.608 17.8876,8.546 C17.6206,8.663 17.3306,8.731 17.0286,8.764 L17.0286,12.655 C17.0286,15.287 17.9776,17.735 19.7836,19.781 L16.4426,20.357 C15.6056,20.502 14.8376,20.619 14.1126,20.712 L14.1096,20.712 C13.7906,20.753 13.4796,20.788 13.1756,20.818 C13.1726,20.819 13.1686,20.819 13.1656,20.819 C12.8876,20.848 12.6156,20.869 12.3476,20.889 C12.2966,20.893 12.2456,20.897 12.1946,20.899 C11.9616,20.915 11.7316,20.927 11.5026,20.936 C11.4546,20.938 11.4076,20.94 11.3606,20.941 C10.8176,20.96 10.2826,20.96 9.7406,20.942 C9.6926,20.94 9.6426,20.939 9.5946,20.936 C9.3686,20.927 9.1416,20.915 8.9116,20.9 C8.8576,20.897 8.8026,20.893 8.7486,20.889 C8.4866,20.87 8.2216,20.848 7.9506,20.821 C7.9416,20.82 7.9316,20.819 7.9236,20.819 C7.6206,20.789 7.3126,20.754 6.9956,20.713 L6.9916,20.713 C6.2636,20.621 5.4936,20.503 4.6526,20.358 L1.3086,19.78 C3.0476,17.793 3.9276,15.4 3.9276,12.654 L3.9276,8.73 C3.9426,6.358 5.6236,4.524 7.2836,3.76 C7.7766,3.532 8.2886,3.362 8.8096,3.243 C8.8136,3.242 8.8186,3.242 8.8226,3.242 C9.8976,3 11.0426,2.989 12.1306,3.212 C12.1356,3.213 12.1416,3.211 12.1476,3.212 C12.7166,3.33 13.2766,3.51 13.8166,3.757 C14.0196,3.85 14.2216,3.96 14.4226,4.086 C14.6056,3.853 14.8156,3.641 15.0596,3.472 C14.7646,3.273 14.4696,3.096 14.1796,2.963 C13.6846,2.736 13.1736,2.562 12.6556,2.433 L12.6556,2.182 C12.6556,0.979 11.6766,0 10.4726,0 C9.2696,0 8.2916,0.979 8.2916,2.182 L8.2916,2.471 C7.8236,2.597 7.3646,2.761 6.9186,2.967 C5.0076,3.848 3.0726,5.97 3.0546,8.728 L3.0546,12.654 C3.0546,15.442 2.0706,17.834 0.1286,19.764 C0.0126,19.879 -0.0294,20.048 0.0196,20.204 C0.0686,20.359 0.2006,20.475 0.3626,20.503 L4.5036,21.218 C5.2756,21.352 5.9856,21.46 6.6616,21.55 C7.4236,23.043 8.9186,24 10.5526,24 C12.1866,24 13.6826,23.042 14.4436,21.549 C15.1166,21.459 15.8236,21.351 16.5916,21.218 L20.7316,20.503 C20.8926,20.475 21.0246,20.359 21.0736,20.203 C21.1236,20.048 21.0816,19.879 20.9666,19.764 Z" id="Fill-1" fill="#735944" mask="url(#mask-2)"></path>
            </g>
            <path d="M13.2435,4.9473 C11.5525,4.1753 9.4815,4.1743 7.8025,4.9483 C6.8445,5.3893 5.2205,6.6813 5.2065,8.7243 C5.2055,8.9663 5.3995,9.1623 5.6405,9.1643 L5.6425,9.1643 C5.8825,9.1643 6.0775,8.9703 6.0795,8.7293 C6.0895,7.1253 7.3965,6.0963 8.1675,5.7413 C9.6205,5.0703 11.4165,5.0723 12.8795,5.7413 C13.0985,5.8413 13.3575,5.7453 13.4585,5.5253 C13.5585,5.3063 13.4625,5.0483 13.2435,4.9473" id="Fill-4" fill="#735944"></path>
            <path d="M16.7138,3.4541 C16.2718,3.4541 15.8628,3.5811 15.5058,3.7881 C15.2428,3.9411 15.0138,4.1411 14.8248,4.3781 C14.4968,4.7911 14.2928,5.3071 14.2928,5.8751 C14.2928,7.2121 15.3768,8.2961 16.7138,8.2961 C16.8098,8.2961 16.9008,8.2781 16.9928,8.2671 C17.2988,8.2321 17.5858,8.1411 17.8448,8.0031 C18.6088,7.5961 19.1348,6.8011 19.1348,5.8751 C19.1348,4.5381 18.0508,3.4541 16.7138,3.4541" id="Fill-6" fill="#DF6553"></path>
        </g>
    </g>
</svg>